<svg width="450" height="800" viewBox="0 0 450 800" fill="none" xmlns="http://www.w3.org/2000/svg">
<path d="M226.175 0C102.65 0 0 100.175 0 223.7V576.3C0 699.85 102.625 800 226.175 800C349.725 800 449.875 699.825 449.875 576.3V223.7C449.875 100.175 349.7 0 226.175 0ZM399.9 576.3C399.9 672.075 321.975 750 226.2 750C130.425 750 50.025 672.075 50.025 576.3V223.7C50.025 127.925 130.425 50 226.2 50C321.975 50 399.9 127.925 399.9 223.7V576.3ZM225.225 150C211.425 150 200.225 161.2 200.225 175V300C200.225 313.8 211.425 325 225.225 325C239.025 325 250.225 313.8 250.225 300V175C250.225 161.2 239.025 150 225.225 150Z" fill="white"/>
</svg>
