<svg width="487" height="487" viewBox="0 0 487 487" fill="none" xmlns="http://www.w3.org/2000/svg">
<circle cx="243.5" cy="243.5" r="243.5" fill="white"/>
<g clip-path="url(#clip0_1322_3)">
<path fill-rule="evenodd" clip-rule="evenodd" d="M88.3493 190.503C85.5377 190.859 84.023 191.171 82.8449 191.642C82.0914 191.943 80.3666 192.401 79.0125 192.659C76.9236 193.059 76.3692 193.24 75.3429 193.861C74.6785 194.262 73.6753 194.748 73.1132 194.942C71.7987 195.394 71.1926 195.713 70.2994 196.425C69.9012 196.743 69.0113 197.298 68.3227 197.66C67.6341 198.022 66.9092 198.544 66.7123 198.822C66.5154 199.099 65.95 199.585 65.4561 199.902C64.9622 200.219 64.3418 200.791 64.0767 201.172C63.8116 201.555 63.3441 202.053 63.0361 202.28C62.7292 202.508 62.1913 203.141 61.8404 203.688C61.4906 204.236 60.9736 204.952 60.692 205.279C58.6108 207.7 56.699 212.94 55.8949 218.434C55.2822 222.611 56.5483 231.146 58.1774 233.834C58.514 234.388 59.0398 235.336 59.3456 235.941C59.6514 236.546 60.1838 237.336 60.5281 237.696C60.8713 238.056 61.4191 238.736 61.7436 239.208C62.0681 239.68 62.3992 240.066 62.4806 240.066C62.5609 240.066 63.1142 240.568 63.7093 241.179C64.3044 241.791 65.0381 242.419 65.3406 242.574C65.6431 242.729 66.2624 243.212 66.7156 243.647C67.2095 244.12 68.0191 244.629 68.7319 244.915C69.3864 245.179 70.2114 245.627 70.5645 245.91C71.4236 246.6 72.0913 246.926 73.408 247.299C74.013 247.469 75.0767 247.951 75.773 248.368C76.7784 248.97 77.5121 249.231 79.348 249.639C80.6768 249.935 82.098 250.382 82.6964 250.692C84.0527 251.396 85.2649 251.734 87.6156 252.064C89.6561 252.35 90.4987 252.58 92.3225 253.344C92.9462 253.606 94.4686 253.983 95.7138 254.184C99.1183 254.732 99.5847 254.851 101.037 255.544C101.845 255.93 103.137 256.334 104.299 256.565C106.755 257.052 107.756 257.38 108.53 257.952C108.872 258.204 109.967 258.662 110.961 258.969C112.36 259.401 112.943 259.685 113.531 260.224C113.949 260.605 114.646 261.098 115.079 261.318C115.967 261.767 118.703 264.453 118.891 265.061C118.959 265.279 119.286 265.871 119.618 266.375C121.094 268.616 121.148 275.239 119.707 277.276C119.526 277.532 119.116 278.28 118.796 278.938C118.189 280.186 116.517 282.088 115.329 282.88C114.959 283.127 114.362 283.58 114 283.888C113.638 284.197 112.566 284.737 111.617 285.089C110.667 285.442 109.582 285.935 109.204 286.184C106.142 288.205 84.8546 288.269 80.833 286.269C79.4866 285.6 78.3305 285.246 76.2999 284.882C74.8897 284.63 74.442 284.461 73.6104 283.866C73.0626 283.473 71.9461 282.932 71.1299 282.663C70.251 282.373 69.3666 281.935 68.9607 281.587C68.5834 281.264 67.6561 280.69 66.8993 280.311C66.1436 279.932 65.1459 279.269 64.6828 278.839C64.2197 278.408 63.5916 277.927 63.2891 277.771C62.9855 277.614 62.4641 277.171 62.1308 276.789C60.3125 274.701 58.1411 275.174 57.0884 277.886C56.8068 278.613 56.2964 279.635 55.9543 280.158C55.6111 280.679 55.0468 281.812 54.6992 282.676C54.3505 283.538 53.8038 284.67 53.4837 285.19C52.8325 286.249 52.772 285.975 54.1052 287.962C54.4792 288.52 55.0435 289.171 55.3592 289.409C55.6749 289.648 56.3998 290.265 56.9707 290.781C57.5405 291.298 58.2962 291.864 58.6493 292.041C59.0024 292.218 59.8274 292.755 60.483 293.235C61.1375 293.713 62.2518 294.347 62.958 294.642C63.6631 294.936 64.6047 295.442 65.0491 295.765C65.5276 296.112 66.6133 296.583 67.7078 296.919C68.7253 297.231 69.9287 297.708 70.383 297.981C71.637 298.736 72.0913 298.871 74.97 299.341C76.983 299.669 77.9873 299.934 79.095 300.429C81.6701 301.579 84.9613 301.854 96.0548 301.844C105.793 301.837 108.733 301.541 111.577 300.283C112.101 300.051 113.131 299.724 113.868 299.554C116.11 299.038 117.444 298.553 118.14 298.001C118.504 297.712 119.381 297.253 120.089 296.982C120.797 296.712 121.721 296.212 122.142 295.872C122.563 295.533 123.314 295.027 123.809 294.748C125.59 293.747 129.592 289.946 130.612 288.284C130.892 287.829 131.353 287.189 131.639 286.861C132.284 286.117 134.599 281.391 134.982 280.034C136.829 273.48 136.33 262.701 134.029 259.409C133.747 259.005 133.296 258.221 133.028 257.666C131.921 255.386 127.582 250.826 125.225 249.468C124.757 249.198 124.018 248.669 123.581 248.291C123.064 247.843 122.285 247.436 121.345 247.124C120.551 246.859 119.629 246.445 119.297 246.204C118.226 245.428 117.439 245.076 116.033 244.744C115.276 244.567 113.833 244.022 112.824 243.532C111.423 242.854 110.58 242.576 109.249 242.356C107.318 242.037 105.987 241.649 105.138 241.155C104.326 240.684 102.856 240.311 100.459 239.968C98.2977 239.658 97.1383 239.341 95.2067 238.528C94.5467 238.25 93.0826 237.901 91.6317 237.676C89.622 237.363 88.907 237.164 87.708 236.581C86.1768 235.838 85.0207 235.469 83.055 235.097C82.2311 234.941 81.6426 234.69 81.0629 234.248C80.6097 233.902 79.5856 233.344 78.787 233.006C77.4395 232.439 76.2768 231.571 74.4442 229.766C73.7633 229.095 72.099 226.409 71.7745 225.458C70.8593 222.771 71.3818 216.602 72.6721 214.859C72.8965 214.556 73.2683 213.937 73.4993 213.484C74.0977 212.307 76.2889 210.015 77.5055 209.296C78.0753 208.959 78.7881 208.449 79.0906 208.162C79.5526 207.724 82.0738 206.7 82.692 206.7C82.7811 206.7 83.451 206.414 84.1803 206.064C86.8566 204.781 86.9248 204.775 96.4156 204.779L104.941 204.785L106.591 205.268C107.498 205.534 108.818 205.958 109.524 206.21C110.231 206.462 111.674 206.849 112.733 207.071C114.662 207.473 115.335 207.727 116.249 208.403C116.519 208.603 117.492 209.027 118.41 209.346C119.451 209.708 120.418 210.193 120.973 210.633C121.883 211.355 122.892 211.834 125.456 212.763C127.207 213.398 127.076 213.47 128.081 211.303C128.531 210.334 129.137 209.079 129.43 208.514C129.721 207.947 130.257 206.669 130.62 205.671C130.983 204.674 131.432 203.446 131.618 202.941C132.288 201.123 132.27 201.074 130.491 199.831C129.621 199.223 128.624 198.498 128.275 198.221C127.925 197.943 127.165 197.553 126.586 197.354C126.007 197.155 125.035 196.659 124.426 196.252C123.818 195.846 122.855 195.385 122.289 195.229C120.195 194.654 119.463 194.386 118.809 193.962C117.907 193.374 116.553 193.009 113.727 192.593C112.35 192.391 110.705 192.009 109.799 191.684C106.672 190.557 106.438 190.535 97.333 190.476C92.7449 190.447 88.7024 190.459 88.3493 190.503ZM158.749 191.266C157.269 191.827 157.201 192.128 157.138 198.368C157.077 204.412 156.975 203.994 158.658 204.619C159.518 204.938 160.594 204.964 176.258 205.05C189.214 205.121 193.031 205.193 193.345 205.373C194.256 205.894 194.216 203.861 194.315 253.781L194.408 300.587L194.86 300.929C196.259 301.984 208.958 301.709 209.96 300.601C210.24 300.291 210.267 296.747 210.311 253.712C210.35 216.177 210.405 207.024 210.597 206.469C211.085 205.052 209.805 205.152 228.605 205.05L245.402 204.959L246.164 204.454C247.162 203.793 247.148 203.898 247.08 198.073C247.014 192.339 246.908 191.801 245.727 191.238C244.728 190.762 160.009 190.788 158.749 191.266ZM280.371 191.282C279.094 192.061 279.178 187.861 279.238 247.301L279.291 300.643L279.914 301.063L280.537 301.484L316.306 301.481L352.074 301.479L353.037 301.031L353.999 300.584V294.537V288.491L353.496 288.142C353.218 287.95 352.826 287.717 352.624 287.626C352.411 287.528 340.584 287.42 324.391 287.366L296.524 287.275L295.699 286.813L294.874 286.351L294.783 239.879L294.691 193.409L294.268 192.475C293.572 190.938 293.551 190.934 286.755 190.934C281.369 190.935 280.899 190.96 280.371 191.282Z" fill="#3D535F"/>
<path fill-rule="evenodd" clip-rule="evenodd" d="M405.15 251.822C402.54 252.036 401.099 252.389 400.022 253.077C399.565 253.368 398.501 253.859 397.658 254.166C396.542 254.571 395.886 254.945 395.257 255.533C394.78 255.98 394.151 256.47 393.858 256.624C393.333 256.901 391.119 259.143 389.634 260.902C388.525 262.218 386.519 266.334 386.096 268.163C384.863 273.507 385.361 281.866 387.074 284.592C387.304 284.958 387.836 285.991 388.255 286.888C388.674 287.784 389.337 288.865 389.729 289.29C390.121 289.716 390.547 290.261 390.675 290.502C391.033 291.179 393.802 293.834 394.713 294.376C395.159 294.643 396.017 295.232 396.62 295.688C397.375 296.26 398.2 296.669 399.278 297.009C400.138 297.279 401.374 297.739 402.025 298.031C405.352 299.521 411.582 299.474 415 297.931C415.799 297.57 416.89 297.174 417.426 297.051C418.391 296.827 418.893 296.549 421.492 294.799C422.871 293.87 425.833 291.081 426.209 290.355C426.325 290.134 426.762 289.556 427.183 289.072C427.603 288.588 428.276 287.49 428.678 286.634C429.079 285.777 429.601 284.782 429.837 284.424C431.393 282.064 431.841 273.696 430.704 268.218C430.407 266.785 428.16 262.007 427.508 261.419C427.287 261.221 426.853 260.687 426.542 260.234C425.768 259.103 423.625 257.035 422.443 256.279C421.906 255.936 421.466 255.577 421.466 255.484C421.466 255.201 420.293 254.565 418.894 254.09C418.169 253.844 417.199 253.392 416.737 253.085C415.036 251.959 410.073 251.418 405.15 251.822Z" fill="#0050FF"/>
</g>
<defs>
<clipPath id="clip0_1322_3">
<rect width="400" height="161.29" fill="white" transform="translate(44 163)"/>
</clipPath>
</defs>
</svg>
