<svg width="51" height="51" viewBox="0 0 51 51" fill="none" xmlns="http://www.w3.org/2000/svg">
<path d="M35.9252 15.2644C35.9354 15.2644 35.9489 15.2644 35.9624 15.2644C36.3163 15.2644 36.6448 15.3745 36.914 15.5641L36.909 15.5608C37.1054 15.7318 37.2375 15.9722 37.2696 16.2431V16.2482C37.3035 16.4548 37.3221 16.6918 37.3221 16.934C37.3221 17.044 37.3187 17.1524 37.3103 17.2608V17.2455C36.9293 21.2568 35.2767 30.9844 34.4369 35.4748C34.0813 37.3763 33.382 38.0129 32.7047 38.0739C31.2333 38.2111 30.1157 37.102 28.69 36.1673C26.4584 34.7027 25.1969 33.7917 23.0313 32.3643C20.527 30.7168 22.1508 29.8076 23.5765 28.3277C23.9507 27.9382 30.4374 22.0374 30.5644 21.5023C30.5712 21.4701 30.5746 21.4346 30.5746 21.3973C30.5746 21.2652 30.5255 21.145 30.4459 21.0536C30.3579 20.996 30.2478 20.9638 30.1327 20.9638C30.0565 20.9638 29.9837 20.9791 29.9159 21.0045L29.9193 21.0028C29.6958 21.0536 26.131 23.4094 19.2249 28.0703C18.4714 28.6646 17.5198 29.0405 16.4836 29.0846H16.4734C15.0054 28.9068 13.6728 28.58 12.408 28.1143L12.5333 28.155C10.945 27.6369 9.68357 27.3642 9.79193 26.4872C9.8495 26.0311 10.4783 25.5643 11.6782 25.0869C19.0697 21.8663 23.9987 19.7436 26.4651 18.7186C29.1862 17.2743 32.3406 16.0857 35.6577 15.3152L35.9235 15.2627L35.9252 15.2644ZM25.4407 0C11.3836 0.0338645 0 11.4377 0 25.5C0 39.5826 11.4157 51 25.5 51C39.5843 51 51 39.5843 51 25.5C51 11.4377 39.6164 0.0338645 25.5627 0H25.5593C25.5198 0 25.4802 0 25.4407 0Z" fill="white"/>
</svg>
