<svg width="54" height="33" viewBox="0 0 54 33" fill="none" xmlns="http://www.w3.org/2000/svg">
<path d="M48.0657 23.1323C48.0657 23.1323 52.4316 27.7415 53.5116 29.8743C53.5326 29.9051 53.549 29.9392 53.5602 29.9753C54.0003 30.7632 54.1083 31.3809 53.8923 31.8369C53.5278 32.5902 52.2939 32.9683 51.8754 33H44.1588C43.6215 33 42.5037 32.8499 41.1429 31.8456C40.1034 31.0692 39.0693 29.7906 38.0676 28.5409C36.5718 26.6851 35.2785 25.0747 33.969 25.0747C33.8036 25.0743 33.6393 25.1036 33.483 25.1613C32.4921 25.4961 31.2339 27.0055 31.2339 31.0259C31.2339 32.2842 30.3051 33 29.6544 33H26.1201C24.9159 33 18.6465 32.5498 13.0872 26.284C6.27505 18.6126 0.156843 3.22381 0.0974432 3.08816C-0.283257 2.09244 0.515944 1.54985 1.37994 1.54985H9.17215C10.2171 1.54985 10.5573 2.22521 10.7949 2.83129C11.0703 3.52685 12.0909 6.30908 13.7649 9.43476C16.4757 14.5201 18.1416 16.5895 19.4727 16.5895C19.7227 16.5903 19.9686 16.5206 20.1855 16.3874C21.9243 15.3658 21.6003 8.72766 21.5193 7.35963C21.5193 7.09411 21.5166 4.39557 20.6256 3.09104C19.9884 2.15594 18.903 1.79229 18.2469 1.65952C18.4224 1.38823 18.795 0.972625 19.2729 0.727304C20.4636 0.0923557 22.6155 0 24.7512 0H25.9365C28.2531 0.0346335 28.8525 0.19337 29.6949 0.421375C31.3905 0.854294 31.4229 2.02895 31.2744 6.02912C31.2312 7.17203 31.1853 8.45924 31.1853 9.97446C31.1853 10.2977 31.1718 10.6585 31.1718 11.025C31.1205 13.0771 31.053 15.3888 32.4084 16.3384C32.5842 16.4554 32.7872 16.5174 32.9943 16.5173C33.4641 16.5173 34.8708 16.5173 38.6859 9.51845C40.3599 6.42741 41.6559 2.78223 41.745 2.50805C41.8206 2.35508 42.0474 1.92505 42.3228 1.75188C42.5187 1.64046 42.7381 1.5848 42.96 1.59026H52.1265C53.1255 1.59026 53.8032 1.75188 53.9355 2.15594C54.1569 2.81109 53.8923 4.81118 49.7073 10.8605C49.0026 11.8678 48.3843 12.7394 47.8416 13.5013C44.0481 18.8233 44.0481 19.0917 48.0657 23.1323V23.1323Z" fill="white"/>
</svg>
